<!-- Generated by IcoMoon.io -->
<svg version="1.1" xmlns="http://www.w3.org/2000/svg" width="32" height="32" viewBox="0 0 32 32">
<title>bank-card</title>
<path d="M28.667 5.333h-25.333c-1.837 0-3.333 1.496-3.333 3.333v14.667c0 1.837 1.496 3.333 3.333 3.333h25.333c1.837 0 3.333-1.496 3.333-3.333v-14.667c0-1.837-1.496-3.333-3.333-3.333zM30.667 23.333c0 1.103-0.897 2-2 2h-25.333c-1.103 0-2-0.897-2-2v-14.667c0-1.103 0.897-2 2-2h25.333c1.103 0 2 0.897 2 2v14.667z"></path>
<path d="M31.333 9.333h-30.667c-0.368 0-0.667 0.299-0.667 0.667v4c0 0.368 0.299 0.667 0.667 0.667h30.667c0.368 0 0.667-0.299 0.667-0.667v-4c0-0.368-0.299-0.667-0.667-0.667zM30.667 13.333h-29.333v-2.667h29.333v2.667z"></path>
<path d="M12.667 18.667h-8c-0.368 0-0.667 0.299-0.667 0.667s0.299 0.667 0.667 0.667h8c0.368 0 0.667-0.299 0.667-0.667s-0.299-0.667-0.667-0.667z"></path>
<path d="M12.667 21.333h-8c-0.368 0-0.667 0.299-0.667 0.667s0.299 0.667 0.667 0.667h8c0.368 0 0.667-0.299 0.667-0.667s-0.299-0.667-0.667-0.667z"></path>
<path d="M26 17.333h-1.333c-1.103 0-2 0.897-2 2v1.333c0 1.103 0.897 2 2 2h1.333c1.103 0 2-0.897 2-2v-1.333c0-1.103-0.897-2-2-2zM26.667 20.667c0 0.368-0.299 0.667-0.667 0.667h-1.333c-0.368 0-0.667-0.299-0.667-0.667v-1.333c0-0.368 0.299-0.667 0.667-0.667h1.333c0.368 0 0.667 0.299 0.667 0.667v1.333z"></path>
</svg>
