<!-- Generated by IcoMoon.io -->
<svg version="1.1" xmlns="http://www.w3.org/2000/svg" width="32" height="32" viewBox="0 0 32 32">
<title>cart</title>
<path d="M21.065 26.3c0.052 0.009 0.104 0.013 0.155 0.013 0.45 0 0.847-0.325 0.924-0.784l0.938-5.625c0.085-0.511-0.26-0.994-0.771-1.079s-0.994 0.26-1.079 0.771l-0.938 5.625c-0.085 0.511 0.26 0.994 0.771 1.079z"></path>
<path d="M9.919 25.529c0.076 0.459 0.474 0.784 0.924 0.784 0.051 0 0.103-0.004 0.155-0.013 0.511-0.085 0.856-0.568 0.771-1.079l-0.938-5.625c-0.085-0.511-0.568-0.856-1.079-0.771s-0.856 0.568-0.771 1.079l0.938 5.625z"></path>
<path d="M31.063 11.312h-3.299l-7.219-9.023c-0.323-0.404-0.913-0.47-1.318-0.146s-0.47 0.913-0.146 1.318l6.282 7.852h-18.724l6.281-7.852c0.323-0.404 0.258-0.994-0.146-1.318s-0.994-0.258-1.318 0.146l-7.219 9.023h-3.299c-0.518 0-0.938 0.42-0.938 0.938v3.75c0 0.518 0.42 0.938 0.938 0.938h1.168l3.556 12.445c0.115 0.402 0.483 0.68 0.901 0.68h18.875c0.419 0 0.786-0.277 0.901-0.68l3.556-12.445h1.168c0.518 0 0.938-0.42 0.938-0.938v-3.75c0-0.518-0.42-0.938-0.938-0.938zM24.73 28.187h-17.461l-3.214-11.25h23.889l-3.214 11.25zM30.125 15.063c-3.212 0-25.207 0-28.25 0v-1.875h28.25v1.875z"></path>
<path d="M16 26.312c0.518 0 0.938-0.42 0.938-0.938v-5.625c0-0.518-0.42-0.938-0.938-0.938s-0.938 0.42-0.938 0.938v5.625c0 0.518 0.42 0.938 0.938 0.938z"></path>
</svg>
