<!-- Generated by IcoMoon.io -->
<svg version="1.1" xmlns="http://www.w3.org/2000/svg" width="32" height="32" viewBox="0 0 32 32">
<title>clock</title>
<path d="M16 5.217c0.383 0 0.696-0.313 0.696-0.696v-0.348c0-0.383-0.313-0.696-0.696-0.696s-0.696 0.313-0.696 0.696v0.348c0 0.383 0.313 0.696 0.696 0.696z"></path>
<path d="M16 26.783c-0.383 0-0.696 0.313-0.696 0.695v0.348c0 0.383 0.313 0.696 0.696 0.696s0.696-0.313 0.696-0.696v-0.348c0-0.383-0.313-0.695-0.696-0.695z"></path>
<path d="M4.522 15.304h-0.348c-0.383 0-0.696 0.313-0.696 0.696s0.313 0.696 0.696 0.696h0.348c0.383 0 0.696-0.313 0.696-0.696s-0.313-0.696-0.696-0.696z"></path>
<path d="M27.826 15.304h-0.348c-0.383 0-0.696 0.313-0.696 0.696s0.313 0.696 0.696 0.696h0.348c0.383 0 0.696-0.313 0.696-0.696s-0.313-0.696-0.696-0.696z"></path>
<path d="M8.139 7.165c-0.278-0.278-0.696-0.278-0.974 0s-0.278 0.696 0 0.974l0.243 0.243c0.139 0.139 0.313 0.209 0.487 0.209s0.348-0.070 0.487-0.209c0.278-0.278 0.278-0.696 0-0.974l-0.243-0.243z"></path>
<path d="M7.409 23.617l-0.243 0.243c-0.278 0.278-0.278 0.696 0 0.974 0.139 0.139 0.313 0.209 0.487 0.209s0.348-0.070 0.487-0.209l0.243-0.243c0.278-0.278 0.278-0.696 0-0.974s-0.696-0.278-0.974 0z"></path>
<path d="M23.861 7.165l-0.243 0.243c-0.278 0.278-0.278 0.696 0 0.974 0.139 0.139 0.313 0.209 0.487 0.209s0.348-0.070 0.487-0.209l0.243-0.243c0.278-0.278 0.278-0.696 0-0.974s-0.696-0.278-0.974 0z"></path>
<path d="M16.696 15.722v-6.33c0-0.383-0.313-0.696-0.696-0.696s-0.696 0.313-0.696 0.696v6.609c0 0.174 0.070 0.348 0.209 0.487l7.617 7.617c0.139 0.139 0.313 0.209 0.487 0.209s0.348-0.070 0.487-0.209c0.278-0.278 0.278-0.696 0-0.974l-7.409-7.409z"></path>
<path d="M16 0c-8.835 0-16 7.165-16 16s7.165 16 16 16c8.835 0 16-7.165 16-16s-7.165-16-16-16zM16 30.609c-8.070 0-14.609-6.539-14.609-14.609s6.539-14.609 14.609-14.609c8.070 0 14.609 6.539 14.609 14.609s-6.539 14.609-14.609 14.609z"></path>
</svg>
