<!-- Generated by IcoMoon.io -->
<svg version="1.1" xmlns="http://www.w3.org/2000/svg" width="32" height="32" viewBox="0 0 32 32">
<title>corn-dogs</title>
<path d="M29.767 1.408c-1.875-1.874-4.913-1.874-6.788 0l-15.683 15.683c-1.591 1.596-1.86 4.082-0.647 5.981l-6.18 6.18c-0.461 0.46-0.599 1.153-0.35 1.755s0.837 0.994 1.489 0.993c0.427 0.002 0.837-0.168 1.139-0.47l6.18-6.18c1.898 1.217 4.388 0.948 5.981-0.647l15.683-15.683c1.872-1.876 1.872-4.913 0-6.788l-0.824-0.824zM1.994 30.774c-0.216 0.204-0.554 0.204-0.77 0-0.211-0.213-0.211-0.557 0-0.77l6.099-6.098 0.77 0.77-6.1 6.098zM29.838 8.268l-15.683 15.68c-0.7 0.7-1.65 1.094-2.64 1.094s-1.94-0.393-2.64-1.094l-0.822-0.822c-1.455-1.459-1.455-3.821 0-5.28l15.68-15.683c1.459-1.456 3.821-1.456 5.28 0l0.826 0.826c1.456 1.459 1.456 3.821 0 5.28z"></path>
<path d="M26.375 2.175c-0.713-0.003-1.398 0.281-1.901 0.787l-2.667 2.667c-0.144 0.132-0.204 0.333-0.157 0.523s0.196 0.338 0.386 0.387 0.391-0.011 0.524-0.155l2.667-2.667c0.642-0.611 1.651-0.611 2.293 0 0.209 0.202 0.542 0.199 0.748-0.006s0.209-0.538 0.006-0.748c-0.503-0.505-1.186-0.789-1.899-0.787z"></path>
<path d="M19.517 9.206c0.142-0 0.277-0.056 0.377-0.156l1.143-1.143c0.139-0.134 0.194-0.332 0.145-0.519s-0.195-0.332-0.381-0.381c-0.186-0.049-0.385 0.007-0.519 0.145l-1.143 1.143c-0.153 0.153-0.198 0.382-0.116 0.581s0.277 0.329 0.493 0.329z"></path>
<path d="M17.993 10.959c0.154-0.154 0.2-0.386 0.117-0.587s-0.28-0.333-0.498-0.333c-0.218 0-0.414 0.131-0.498 0.333s-0.037 0.433 0.117 0.587c0.21 0.21 0.551 0.21 0.762 0z"></path>
<path d="M21.426 13.63l-7.62 7.62c-0.139 0.134-0.194 0.332-0.145 0.519s0.194 0.332 0.381 0.381c0.186 0.049 0.385-0.007 0.519-0.145l7.62-7.62c0.202-0.209 0.199-0.542-0.006-0.748s-0.538-0.209-0.748-0.007z"></path>
</svg>
