<!-- Generated by IcoMoon.io -->
<svg version="1.1" xmlns="http://www.w3.org/2000/svg" width="32" height="32" viewBox="0 0 32 32">
<title>drinks</title>
<path d="M24.115 12.026h-0.376c-0.167-4.016-3.388-7.237-7.362-7.446v-4.058c0-0.251-0.167-0.418-0.418-0.418s-0.418 0.167-0.418 0.418v4.058c-4.016 0.209-7.195 3.43-7.362 7.446h-0.293c-0.251 0-0.418 0.167-0.418 0.418v2.133c0 0.251 0.167 0.418 0.418 0.418h0.293l1.548 16.523c0 0.209 0.209 0.376 0.418 0.376h11.503c0.209 0 0.377-0.167 0.418-0.376l1.548-16.523h0.502c0.251 0 0.418-0.167 0.418-0.418v-2.133c0-0.251-0.209-0.418-0.418-0.418zM16.376 5.417c3.514 0.209 6.358 3.054 6.526 6.609h-6.526v-6.609zM15.54 5.417v6.609h-6.525c0.167-3.556 2.97-6.4 6.525-6.609zM8.303 12.863h7.237v1.297h-7.237v-1.297zM9.014 14.996h6.525v2.719h-6.274l-0.251-2.719zM21.271 31.059h-10.75l-1.171-12.549h6.191v7.237c0 0.251 0.167 0.418 0.418 0.418s0.418-0.167 0.418-0.418v-7.237h6.065l-1.171 12.549zM22.525 17.673h-6.149v-2.677h6.4l-0.251 2.677zM23.697 14.159h-7.32v-1.297h7.32v1.297z"></path>
<path d="M12.612 19.765c-1.004 0-1.841 0.837-1.841 1.84s0.837 1.841 1.841 1.841c1.004 0 1.841-0.837 1.841-1.841s-0.837-1.84-1.841-1.84zM12.612 22.609c-0.544 0-1.004-0.46-1.004-1.004s0.46-1.004 1.004-1.004 1.004 0.46 1.004 1.004c0 0.544-0.46 1.004-1.004 1.004z"></path>
<path d="M18.928 25.914c-1.004 0-1.841 0.837-1.841 1.841s0.795 1.841 1.841 1.841c1.004 0 1.841-0.837 1.841-1.841s-0.837-1.841-1.841-1.841zM18.928 28.758c-0.544 0-1.004-0.46-1.004-1.004s0.418-1.004 1.004-1.004c0.544 0 1.004 0.46 1.004 1.004s-0.46 1.004-1.004 1.004z"></path>
<path d="M19.179 20.35c-0.837 0-1.548 0.711-1.548 1.548s0.711 1.548 1.548 1.548c0.837 0 1.548-0.711 1.548-1.548s-0.711-1.548-1.548-1.548zM19.179 22.609c-0.377 0-0.711-0.335-0.711-0.711s0.335-0.711 0.711-0.711c0.376 0 0.711 0.335 0.711 0.711s-0.293 0.711-0.711 0.711z"></path>
<path d="M13.574 26.206c-0.837 0-1.548 0.711-1.548 1.548s0.711 1.548 1.548 1.548c0.837 0 1.548-0.711 1.548-1.548s-0.711-1.548-1.548-1.548zM13.574 28.465c-0.377 0-0.711-0.335-0.711-0.711s0.335-0.711 0.711-0.711c0.376 0 0.711 0.335 0.711 0.711 0 0.418-0.335 0.711-0.711 0.711z"></path>
</svg>
