<!-- Generated by IcoMoon.io -->
<svg version="1.1" xmlns="http://www.w3.org/2000/svg" width="32" height="32" viewBox="0 0 32 32">
<title>map-mark</title>
<path d="M16 0c-5.988 0-10.86 4.872-10.86 10.86 0 2.406 1.417 6.066 4.459 11.517 2.076 3.719 4.142 6.861 4.229 6.993l1.493 2.264c0.151 0.228 0.406 0.366 0.679 0.366s0.529-0.137 0.679-0.366l1.493-2.264c0.086-0.131 2.137-3.245 4.229-6.994 3.042-5.451 4.459-9.111 4.459-11.517 0-5.988-4.872-10.86-10.86-10.86zM20.981 21.584c-2.063 3.696-4.081 6.761-4.166 6.89l-0.814 1.234-0.814-1.234c-0.086-0.13-2.12-3.223-4.167-6.891-2.822-5.056-4.252-8.665-4.252-10.724 0-5.091 4.142-9.233 9.233-9.233s9.233 4.142 9.233 9.233c0 2.060-1.431 5.668-4.252 10.724z"></path>
<path d="M16 4.771c-3.32 0-6.021 2.701-6.021 6.021s2.701 6.021 6.021 6.021c3.32 0 6.021-2.701 6.021-6.021s-2.701-6.021-6.021-6.021zM16 15.186c-2.423 0-4.394-1.971-4.394-4.394s1.971-4.394 4.394-4.394 4.394 1.971 4.394 4.394c0 2.423-1.971 4.394-4.394 4.394z"></path>
</svg>
