<!-- Generated by IcoMoon.io -->
<svg version="1.1" xmlns="http://www.w3.org/2000/svg" width="32" height="32" viewBox="0 0 32 32">
<title>pizza</title>
<path d="M31.049 12.349c-0.083-0.124-0.166-0.249-0.29-0.29 0.124-0.166 0.207-0.415 0.166-0.622-0.041-0.913-0.456-2.78-2.489-5.103-2.075-2.324-3.9-2.946-4.772-3.112-0.166-0.042-0.29 0-0.415 0-0.041-0.207-0.166-0.415-0.332-0.539-0.705-0.581-2.365-1.494-5.477-1.494s-4.772 0.954-5.518 1.494c-0.373 0.29-0.498 0.747-0.29 1.162l0.664 1.535 4.149 10.041c0 0.041 0.041 0.083 0.083 0.124-0.083-0.041-0.207-0.041-0.332-0.041l-10.912 0.954-1.66 0.124c-0.456 0.041-0.83 0.373-0.913 0.83-0.166 0.913-0.207 2.821 1.286 5.518 1.452 2.738 3.112 3.734 3.942 4.108 0.124 0.041 0.249 0.083 0.415 0.083 0 0 0 0 0.041 0 0 0.207 0.083 0.415 0.207 0.622 0.581 0.705 1.95 2.033 4.979 2.738 1.079 0.249 1.992 0.332 2.78 0.332 1.411 0 2.365-0.29 2.904-0.539 0.124-0.041 0.249-0.166 0.332-0.249 0.166 0.124 0.373 0.249 0.581 0.249 0.083 0 0.166 0 0.249 0 0.996 0 2.78-0.29 5.062-1.909 2.531-1.784 3.361-3.527 3.651-4.398 0.041-0.124 0.041-0.29 0.041-0.415 0.207-0.041 0.415-0.124 0.581-0.29 0.664-0.664 1.784-2.199 2.116-5.269 0.415-3.070-0.332-4.854-0.83-5.643zM23.29 4.133c0.041-0.083 0.124-0.124 0.166-0.083 0.788 0.166 2.448 0.705 4.315 2.821s2.241 3.776 2.282 4.606c0 0.083-0.041 0.124-0.124 0.166l-0.664 0.249c-0.083-0.83-0.498-2.406-2.199-4.357s-3.278-2.531-4.108-2.697l0.332-0.705zM29.307 17.701c-0.29 2.531-1.245 3.734-1.66 4.149-0.041 0.041-0.083 0.041-0.124 0l-4.854-2.821-4.274-2.697 4.854-1.618 5.269-1.494c0.041 0 0.083 0 0.124 0.041 0.332 0.498 0.954 1.909 0.664 4.44zM22.709 5.627c0.539 0.083 2.033 0.539 3.776 2.489 1.701 1.909 1.95 3.444 1.992 3.983 0 0.041-0.041 0.083-0.083 0.083l-5.352 1.743-4.855 1.369 2.033-4.689 2.407-4.937c0-0.042 0.041-0.042 0.083-0.042zM12.337 3.553c-0.041-0.083 0-0.166 0.041-0.207 0.664-0.498 2.158-1.328 4.979-1.328s4.315 0.83 4.938 1.328c0.041 0.042 0.083 0.124 0.041 0.207l-0.29 0.664c-0.705-0.498-2.116-1.245-4.689-1.245s-4.066 0.747-4.73 1.245l-0.29-0.664zM13.001 5.088c0-0.042 0-0.083 0.041-0.124 0.456-0.332 1.784-1.162 4.357-1.162 2.489 0 3.776 0.705 4.315 1.162 0.041 0.041 0.041 0.083 0.041 0.124l-2.241 5.186-2.324 4.813-4.191-9.999zM17.274 16.041c0 0.041 0 0.041 0 0.083 0 0-0.041 0-0.083 0.041-0.041 0-0.041 0-0.083-0.041 0-0.041 0-0.083-0.041-0.124l-0.041-0.041c0.041 0 0.124 0.041 0.166 0.041 0.041 0.041 0.041 0.041 0.083 0.041zM16.776 17.286l1.037 5.020 0.871 5.394c0 0.041 0 0.083-0.041 0.124-0.498 0.249-1.992 0.705-4.481 0.124s-3.568-1.66-3.942-2.116c-0.041-0.041-0.041-0.083 0-0.124l3.361-4.523 3.195-3.9zM8.478 26.248c-0.041 0.041-0.124 0.083-0.207 0.041-0.581-0.249-2.158-1.162-3.568-3.776-1.328-2.489-1.328-4.191-1.162-4.979 0-0.083 0.083-0.124 0.166-0.124l0.747-0.041c-0.124 0.83-0.083 2.489 1.12 4.73 1.245 2.282 2.572 3.195 3.361 3.568l-0.456 0.581zM6.279 21.726c-1.203-2.241-1.12-3.776-1.037-4.357 0-0.041 0.042-0.083 0.083-0.083l10.871-0.913c-0.041 0.041-0.083 0.041-0.083 0.083l-3.153 4.232-3.444 4.274c-0.041 0.041-0.083 0.041-0.124 0.041-0.539-0.249-1.867-1.037-3.112-3.278zM18.892 29.526c-0.581 0.29-2.282 0.83-5.186 0.166-2.78-0.664-4.025-1.826-4.523-2.448-0.041-0.041-0.041-0.124 0-0.207l0.456-0.581c0.539 0.664 1.784 1.701 4.274 2.282 0.954 0.207 1.743 0.29 2.448 0.29 1.162 0 1.95-0.249 2.448-0.456l0.124 0.747c0.083 0.124 0.041 0.207-0.041 0.207zM19.764 27.659l-1.12-5.518-0.83-4.979 4.44 2.572 4.606 2.946c0.041 0.041 0.041 0.083 0.041 0.124-0.166 0.539-0.788 1.95-2.904 3.444-2.116 1.452-3.61 1.577-4.191 1.535 0-0.041-0.041-0.041-0.041-0.124zM25.033 27.7c-2.324 1.618-4.025 1.784-4.813 1.743-0.083 0-0.124-0.041-0.166-0.124l-0.124-0.747c0.041 0 0.041 0 0.083 0 0.871 0 2.448-0.249 4.481-1.66 2.116-1.494 2.904-2.946 3.153-3.734l0.622 0.373c0.083 0.041 0.083 0.124 0.083 0.207-0.166 0.622-0.871 2.241-3.319 3.942zM31.091 17.909c-0.332 2.821-1.328 4.191-1.909 4.772-0.041 0.041-0.124 0.083-0.207 0.041l-0.622-0.373c0.581-0.622 1.494-1.992 1.784-4.523 0.29-2.572-0.29-4.108-0.705-4.854l0.705-0.207c0.083-0.041 0.166 0 0.207 0.083 0.415 0.664 1.079 2.241 0.747 5.062z"></path>
<path d="M19.141 4.673c-0.83 0-1.494 0.664-1.494 1.494s0.664 1.494 1.494 1.494c0.83 0 1.494-0.664 1.494-1.494s-0.664-1.494-1.494-1.494zM19.141 6.872c-0.373 0-0.664-0.29-0.664-0.664s0.29-0.664 0.664-0.664c0.373 0 0.664 0.29 0.664 0.664s-0.29 0.664-0.664 0.664z"></path>
<path d="M17.191 8.117c-0.788 0-1.411 0.622-1.411 1.411s0.622 1.411 1.411 1.411c0.788 0 1.411-0.622 1.411-1.411s-0.622-1.411-1.411-1.411zM17.15 10.108c-0.332 0-0.581-0.249-0.581-0.581s0.249-0.581 0.581-0.581c0.332 0 0.581 0.249 0.581 0.581s-0.249 0.581-0.581 0.581z"></path>
<path d="M24.577 8.075c-0.456-0.498-1.245-0.539-1.743-0.083-0.249 0.207-0.373 0.539-0.415 0.83 0 0.332 0.083 0.664 0.29 0.871 0.207 0.29 0.539 0.456 0.871 0.456 0.041 0 0.041 0 0.083 0 0.29 0 0.581-0.124 0.83-0.332 0.498-0.456 0.539-1.245 0.083-1.743zM23.871 9.278c-0.083 0.083-0.166 0.124-0.29 0.083-0.124 0-0.207-0.041-0.29-0.124s-0.124-0.166-0.083-0.29c0.041-0.124 0.083-0.249 0.166-0.29 0.083-0.083 0.166-0.083 0.249-0.083 0.124 0 0.207 0.041 0.29 0.124 0.166 0.166 0.124 0.415-0.041 0.581z"></path>
<path d="M27.937 18.241c-0.29-0.29-0.622-0.498-0.996-0.539-0.788-0.083-1.535 0.498-1.618 1.286s0.498 1.535 1.286 1.618c0.041 0 0.124 0 0.166 0 0.747 0 1.369-0.539 1.452-1.286 0.041-0.373-0.083-0.788-0.29-1.079zM26.693 19.817c-0.373-0.041-0.622-0.373-0.581-0.705 0.041-0.373 0.373-0.622 0.705-0.581 0.166 0 0.332 0.124 0.415 0.249s0.166 0.29 0.166 0.456c-0.041 0.373-0.373 0.622-0.705 0.581z"></path>
<path d="M28.311 14.506c-0.166-0.249-0.456-0.415-0.788-0.456s-0.664 0.041-0.913 0.249-0.415 0.498-0.456 0.83c-0.041 0.332 0.041 0.664 0.249 0.913s0.498 0.415 0.83 0.456c0.041 0 0.083 0 0.124 0 0.29 0 0.539-0.083 0.747-0.249 0.249-0.207 0.415-0.498 0.456-0.83s-0.041-0.664-0.249-0.913zM27.605 15.585c-0.083 0.083-0.207 0.083-0.29 0.083-0.124 0-0.207-0.083-0.249-0.166-0.083-0.083-0.083-0.207-0.083-0.29 0-0.124 0.083-0.207 0.166-0.249 0.083-0.083 0.207-0.083 0.29-0.083 0.124 0 0.207 0.083 0.249 0.166s0.083 0.207 0.083 0.29c0 0.083-0.083 0.207-0.166 0.249z"></path>
<path d="M22.087 20.606c-0.249-0.332-0.539-0.539-0.913-0.581-0.373-0.083-0.747 0-1.079 0.249-0.622 0.456-0.788 1.328-0.332 1.992 0.249 0.373 0.705 0.581 1.162 0.581 0.29 0 0.581-0.083 0.83-0.249 0.332-0.207 0.539-0.539 0.581-0.913 0.083-0.373 0-0.747-0.249-1.079zM21.506 21.56c-0.041 0.166-0.124 0.29-0.249 0.373-0.249 0.207-0.622 0.124-0.83-0.166-0.166-0.249-0.124-0.622 0.166-0.83 0.249-0.166 0.622-0.124 0.83 0.166 0.083 0.124 0.124 0.29 0.083 0.456z"></path>
<path d="M16.195 24.257c-0.332-0.083-0.664-0.041-0.913 0.166-0.29 0.166-0.456 0.456-0.539 0.747-0.207 0.664 0.207 1.328 0.871 1.494 0.083 0.041 0.207 0.041 0.29 0.041 0.539 0 1.079-0.373 1.203-0.954 0.166-0.664-0.249-1.328-0.913-1.494zM16.237 25.584c-0.041 0.207-0.249 0.332-0.498 0.29-0.124-0.041-0.207-0.083-0.249-0.166s0-0.207 0-0.332c0.041-0.124 0.083-0.207 0.166-0.249s0.124-0.041 0.207-0.041c0.041 0 0.083 0 0.083 0 0.207 0.041 0.332 0.249 0.29 0.498z"></path>
<path d="M8.851 18.324c-0.373-0.705-1.286-0.996-1.992-0.581-0.705 0.373-0.996 1.286-0.581 1.992 0.249 0.498 0.788 0.788 1.286 0.788 0.249 0 0.456-0.041 0.705-0.166 0.705-0.415 0.954-1.328 0.581-2.033zM7.856 19.61c-0.332 0.166-0.705 0.041-0.871-0.249-0.166-0.332-0.042-0.705 0.249-0.871 0.332-0.166 0.705-0.041 0.871 0.249s0.041 0.705-0.249 0.871z"></path>
<path d="M12.669 18.489c-0.166-0.332-0.498-0.581-0.83-0.705-0.373-0.124-0.747-0.083-1.079 0.124-0.332 0.166-0.581 0.498-0.705 0.83-0.124 0.373-0.083 0.747 0.124 1.079 0.166 0.373 0.456 0.622 0.83 0.705 0.124 0.041 0.29 0.041 0.415 0.041 0.249 0 0.456-0.041 0.664-0.166 0.332-0.166 0.581-0.498 0.705-0.83 0.124-0.373 0.083-0.747-0.124-1.079zM11.673 19.693c-0.124 0.083-0.29 0.083-0.456 0.041s-0.29-0.166-0.332-0.29-0.083-0.29-0.041-0.456c0.041-0.166 0.166-0.29 0.29-0.332 0.124-0.083 0.29-0.083 0.456-0.041s0.29 0.166 0.332 0.29c0.166 0.29 0.041 0.664-0.249 0.788z"></path>
<path d="M14.204 12.681l-6.68-8.63-1.037-1.328c-0.29-0.373-0.747-0.498-1.162-0.29-0.83 0.373-2.448 1.369-3.942 4.066s-1.452 4.647-1.328 5.56c0.083 0.456 0.415 0.788 0.871 0.83l1.66 0.124 10.788 1.162c0.083 0 0.124 0 0.124 0 0.332 0 0.622-0.166 0.788-0.456 0.166-0.332 0.166-0.705-0.083-1.037zM1.756 12.141l-0.705-0.083c-0.083 0-0.124-0.083-0.166-0.124-0.124-0.788-0.124-2.531 1.203-5.020 1.369-2.49 2.821-3.402 3.527-3.693 0.083-0.042 0.166 0 0.207 0.042l0.456 0.581c-0.788 0.373-2.116 1.286-3.361 3.527-1.245 2.282-1.286 3.9-1.162 4.771zM13.623 13.303c-0.041 0.041-0.041 0.041-0.083 0.041l-10.788-1.162c-0.083 0-0.124-0.041-0.124-0.083-0.083-0.581-0.166-2.116 1.079-4.357s2.572-2.987 3.070-3.236c0.042 0 0.083 0 0.124 0.042l6.722 8.63c0.041 0.041 0.041 0.083 0 0.124z"></path>
<path d="M8.022 6.913c-0.124-0.373-0.373-0.705-0.705-0.871-0.332-0.207-0.747-0.249-1.12-0.124s-0.705 0.373-0.871 0.705c-0.207 0.332-0.249 0.747-0.124 1.12s0.373 0.705 0.705 0.913c0.207 0.124 0.456 0.166 0.705 0.166 0.539 0 1.037-0.29 1.286-0.788 0.207-0.332 0.249-0.747 0.124-1.12zM7.15 7.66c-0.166 0.332-0.581 0.415-0.871 0.249-0.166-0.083-0.249-0.207-0.29-0.373s0-0.332 0.083-0.498c0.083-0.166 0.207-0.249 0.373-0.29 0.041 0 0.124-0.042 0.166-0.042 0.124 0 0.207 0.042 0.29 0.083 0.166 0.083 0.249 0.207 0.29 0.373s0.042 0.332-0.042 0.498z"></path>
<path d="M8.685 9.859c-0.581-0.415-1.328-0.207-1.66 0.415-0.166 0.29-0.207 0.622-0.083 0.954 0.083 0.332 0.29 0.581 0.581 0.747 0.166 0.083 0.373 0.166 0.581 0.166 0.124 0 0.249 0 0.332-0.041 0.332-0.083 0.581-0.29 0.747-0.581 0.332-0.581 0.124-1.328-0.498-1.66zM8.478 11.021c-0.124 0.207-0.332 0.249-0.539 0.166-0.083-0.041-0.166-0.124-0.207-0.249s0-0.207 0.042-0.29c0.042-0.083 0.124-0.166 0.249-0.207 0 0.041 0.041 0 0.083 0 0.083 0 0.124 0 0.207 0.041 0.207 0.124 0.249 0.332 0.166 0.539z"></path>
<path d="M5.159 10.44l-0.498-1.037c-0.083-0.207-0.332-0.29-0.539-0.207s-0.29 0.332-0.207 0.539l0.498 1.037c0.083 0.166 0.207 0.249 0.373 0.249 0.042 0 0.124 0 0.166-0.041 0.207-0.083 0.29-0.332 0.207-0.539z"></path>
<path d="M16.112 7.079l-0.498-1.037c-0.083-0.207-0.332-0.29-0.539-0.207s-0.29 0.332-0.207 0.539l0.498 1.037c0.083 0.166 0.207 0.249 0.373 0.249 0.041 0 0.124 0 0.166-0.042 0.207-0.083 0.332-0.332 0.207-0.539z"></path>
<path d="M23.415 12.266l-0.498-1.037c-0.083-0.207-0.332-0.29-0.539-0.207s-0.29 0.332-0.207 0.539l0.498 1.037c0.083 0.166 0.207 0.249 0.373 0.249 0.041 0 0.124 0 0.166-0.041 0.207-0.083 0.29-0.332 0.207-0.539z"></path>
<path d="M13.457 25.792l-0.498-1.037c-0.083-0.207-0.332-0.29-0.539-0.207s-0.29 0.332-0.207 0.539l0.498 1.037c0.083 0.166 0.207 0.249 0.373 0.249 0.041 0 0.124 0 0.166-0.041 0.207-0.083 0.29-0.332 0.207-0.539z"></path>
<path d="M21.963 24.879l-1.162-0.207c-0.207-0.041-0.456 0.124-0.498 0.332s0.124 0.456 0.332 0.498l1.162 0.207c0.041 0 0.041 0 0.083 0 0.207 0 0.373-0.124 0.415-0.332 0.083-0.249-0.083-0.456-0.332-0.498z"></path>
<path d="M23.871 17.12l-1.162-0.207c-0.207-0.041-0.456 0.124-0.498 0.332s0.124 0.456 0.332 0.498l1.162 0.207c0.041 0 0.041 0 0.083 0 0.207 0 0.373-0.124 0.415-0.332s-0.124-0.456-0.332-0.498z"></path>
<path d="M26.734 10.648l-1.162-0.207c-0.207-0.041-0.456 0.124-0.498 0.332-0.041 0.249 0.124 0.456 0.332 0.498l1.162 0.207c0.041 0 0.041 0 0.083 0 0.207 0 0.373-0.124 0.415-0.332s-0.124-0.456-0.332-0.498z"></path>
<path d="M16.112 22.182l-0.498-1.037c-0.083-0.207-0.332-0.29-0.539-0.207s-0.29 0.332-0.207 0.539l0.498 1.037c0.083 0.166 0.207 0.249 0.373 0.249 0.041 0 0.124 0 0.166-0.041 0.207-0.083 0.29-0.332 0.207-0.539z"></path>
<path d="M9.681 21.643c-0.124-0.166-0.415-0.207-0.581-0.041l-0.913 0.747c-0.166 0.124-0.207 0.415-0.041 0.581 0.083 0.083 0.207 0.166 0.332 0.166 0.083 0 0.166-0.041 0.249-0.083l0.913-0.747c0.166-0.166 0.207-0.415 0.041-0.622z"></path>
<path d="M21.133 12.888c-0.124-0.166-0.415-0.207-0.581-0.041l-0.913 0.705c-0.166 0.166-0.207 0.415-0.041 0.581 0.083 0.083 0.207 0.166 0.332 0.166 0.083 0 0.166-0.041 0.249-0.083l0.913-0.747c0.166-0.124 0.207-0.415 0.041-0.581z"></path>
<path d="M24.826 22.888c-0.124-0.166-0.415-0.207-0.581-0.041l-0.913 0.747c-0.166 0.124-0.207 0.415-0.041 0.581 0.083 0.083 0.207 0.124 0.332 0.124 0.083 0 0.166-0.041 0.249-0.083l0.913-0.747c0.166-0.124 0.207-0.415 0.041-0.581z"></path>
</svg>
