<!-- Generated by IcoMoon.io -->
<svg version="1.1" xmlns="http://www.w3.org/2000/svg" width="32" height="32" viewBox="0 0 32 32">
<title>reviews</title>
<path d="M12.637 10.26l-0.204 0.084c-0.344-0.601-0.991-1.007-1.731-1.007h-3.164c-1.099 0-1.994 0.895-1.994 1.994v8.998c0 1.099 0.894 1.994 1.994 1.994h3.164c0.626 0 1.186-0.291 1.552-0.744 1.101 0.488 2.303 0.744 3.508 0.744h6.685c1.121 0 2.033-0.912 2.033-2.033 0-0.351-0.089-0.681-0.246-0.969 0.699-0.322 1.185-1.029 1.185-1.847 0-0.336-0.083-0.654-0.228-0.933 0.743-0.303 1.267-1.033 1.267-1.883s-0.525-1.58-1.267-1.883c0.145-0.28 0.228-0.597 0.228-0.934 0-1.121-0.912-2.033-2.033-2.033h-3.331c-0.315 0-0.571-0.256-0.571-0.571v-1.839c0-1.833-1.491-3.324-3.324-3.324-0.804 0-1.458 0.654-1.458 1.458v1.647c-0 1.356-0.81 2.566-2.064 3.083zM10.701 21.073h-3.164c-0.41 0-0.744-0.334-0.744-0.744v-8.998c0-0.41 0.334-0.744 0.744-0.744h3.164c0.41 0 0.744 0.334 0.744 0.744v8.998c0 0.41-0.334 0.744-0.744 0.744zM15.95 7.177v-1.647c0-0.114 0.093-0.208 0.208-0.208 1.144 0 2.074 0.931 2.074 2.074v1.839c0 1.004 0.817 1.821 1.821 1.821h3.331c0.432 0 0.783 0.351 0.783 0.783s-0.351 0.783-0.783 0.783h-3.901c-0.345 0-0.625 0.28-0.625 0.625s0.28 0.625 0.625 0.625h4.94c0.432 0 0.783 0.351 0.783 0.783s-0.351 0.783-0.783 0.783h-4.94c-0.345 0-0.625 0.28-0.625 0.625s0.28 0.625 0.625 0.625h3.901c0.432 0 0.783 0.351 0.783 0.783s-0.351 0.783-0.783 0.783h-3.901c-0.345 0-0.625 0.28-0.625 0.625s0.28 0.625 0.625 0.625h2.962c0.432 0 0.783 0.351 0.783 0.783s-0.351 0.783-0.783 0.783h-6.685c-1.055 0-2.108-0.23-3.068-0.667 0.001-0.026 0.002-0.051 0.002-0.077v-8.741l0.418-0.172c1.724-0.71 2.838-2.374 2.838-4.238z"></path>
<path d="M26.375 1.25h-7.563c-0.345 0-0.625 0.28-0.625 0.625s0.28 0.625 0.625 0.625h7.563c2.412 0 4.375 1.963 4.375 4.375v14.5c0 2.412-1.963 4.375-4.375 4.375h-8.21c-0.223 0-0.43 0.119-0.541 0.313l-1.624 2.813-1.624-2.813c-0.112-0.193-0.318-0.313-0.541-0.313h-8.21c-2.412 0-4.375-1.963-4.375-4.375v-14.5c0-2.412 1.963-4.375 4.375-4.375h7.562c0.345 0 0.625-0.28 0.625-0.625s-0.28-0.625-0.625-0.625h-7.562c-3.102 0-5.625 2.523-5.625 5.625v14.5c0 3.102 2.523 5.625 5.625 5.625h7.849l1.985 3.438c0.112 0.193 0.318 0.313 0.541 0.313s0.43-0.119 0.541-0.313l1.985-3.438h7.849c3.102 0 5.625-2.523 5.625-5.625v-14.5c0-3.102-2.523-5.625-5.625-5.625z"></path>
<path d="M16 2.5c0.164 0 0.325-0.067 0.442-0.183s0.183-0.277 0.183-0.442-0.067-0.326-0.183-0.442c-0.116-0.116-0.277-0.183-0.442-0.183s-0.326 0.067-0.442 0.183c-0.116 0.116-0.183 0.278-0.183 0.442s0.067 0.326 0.183 0.442c0.116 0.116 0.277 0.183 0.442 0.183z"></path>
</svg>
