<!-- Generated by IcoMoon.io -->
<svg version="1.1" xmlns="http://www.w3.org/2000/svg" width="32" height="32" viewBox="0 0 32 32">
<title>rolls</title>
<path d="M16 9.825c1.395 0 2.838-0.247 3.853-0.72 0.083-0.012 0.164-0.049 0.228-0.113 0.698-0.375 1.143-0.872 1.143-1.484 0-1.505-2.691-2.317-5.223-2.317s-5.223 0.812-5.223 2.317 2.691 2.317 5.223 2.317zM15.398 8.995c-0.015-0.024-0.033-0.047-0.054-0.068l-2.452-2.452c0.344-0.125 0.752-0.234 1.217-0.315l2.815 2.815c-0.293 0.023-0.601 0.035-0.924 0.035-0.207-0-0.407-0.006-0.602-0.015zM20.409 7.507c0 0.213-0.194 0.454-0.555 0.68l-2.042-2.042c1.642 0.273 2.597 0.888 2.597 1.361zM16.53 6.016l2.538 2.538c-0.323 0.114-0.7 0.214-1.125 0.291-0.002-0.003-0.004-0.006-0.007-0.008l-2.802-2.802c0.275-0.020 0.563-0.031 0.865-0.031 0.182-0 0.358 0.004 0.53 0.011zM12.113 6.848l2.009 2.009c-1.602-0.279-2.531-0.883-2.531-1.35 0-0.206 0.182-0.439 0.522-0.659z"></path>
<path d="M8.175 16.609c2.532 0 5.223-0.812 5.223-2.317s-2.691-2.317-5.223-2.317c-2.532 0-5.223 0.812-5.223 2.317s2.691 2.317 5.223 2.317zM5.334 15.413l1.633-1.319 1.691 1.691c-0.157 0.006-0.318 0.009-0.482 0.009-1.149 0-2.111-0.155-2.841-0.382zM12.584 14.292c0 0.499-1.061 1.154-2.867 1.402l-0.721-0.721 2.080-1.783c0.967 0.311 1.508 0.747 1.508 1.103zM10.103 12.951l-1.685 1.444-1.536-1.536c0.399-0.045 0.83-0.070 1.293-0.070 0.72 0 1.366 0.061 1.928 0.162zM5.894 13.022l0.494 0.494-1.9 1.534 0.026 0.032c-0.485-0.256-0.748-0.543-0.748-0.79 0-0.426 0.775-0.967 2.128-1.27z"></path>
<path d="M24.208 9.989v-2.481c0-0.001-0-0.002-0-0.003-0.003-2.414-3.607-4.304-8.208-4.304-4.602 0-8.208 1.892-8.208 4.307 0 0 0 0 0 0v2.481c-4.418 0.101-7.825 1.955-7.825 4.303v10.201c0 2.415 3.605 4.307 8.208 4.307 3.716 0 6.782-1.234 7.825-2.98 1.043 1.746 4.108 2.98 7.825 2.98 4.602 0 8.208-1.892 8.208-4.307v-10.201c0-2.348-3.407-4.201-7.825-4.303zM31.218 14.292c0 1.894-3.386 3.493-7.393 3.493s-7.394-1.6-7.394-3.493c0-1.894 3.386-3.493 7.393-3.493s7.394 1.6 7.394 3.493zM22.704 10.023c0.261-0.193 0.492-0.399 0.689-0.615v0.582c-0.233 0.006-0.463 0.017-0.689 0.033zM16 12.965c-0.257-0.431-0.637-0.831-1.12-1.188 0.366 0.025 0.74 0.038 1.12 0.038s0.755-0.013 1.12-0.038c-0.483 0.358-0.863 0.757-1.12 1.188zM16 4.014c4.008 0 7.393 1.6 7.393 3.493s-3.386 3.493-7.393 3.493c-4.008 0-7.394-1.6-7.394-3.493s3.386-3.493 7.394-3.493zM9.296 10.023c-0.227-0.016-0.456-0.027-0.689-0.033v-0.582c0.198 0.216 0.428 0.421 0.689 0.614zM8.175 10.799c4.008 0 7.394 1.6 7.394 3.493s-3.386 3.493-7.393 3.493-7.394-1.6-7.394-3.493c0-1.894 3.386-3.493 7.394-3.493zM8.175 27.986c-4.008 0-7.394-1.6-7.394-3.493v-8.3c1.316 1.437 4.099 2.406 7.394 2.406s6.077-0.969 7.394-2.406v8.3c0 1.894-3.386 3.493-7.393 3.493zM31.218 24.493c0 1.894-3.386 3.493-7.393 3.493s-7.394-1.6-7.394-3.493v-8.3c1.316 1.437 4.099 2.406 7.393 2.406s6.077-0.969 7.393-2.406v8.3h0z"></path>
<path d="M18.602 14.292c0 1.505 2.691 2.317 5.223 2.317s5.223-0.812 5.223-2.317c0-1.505-2.691-2.317-5.223-2.317s-5.223 0.812-5.223 2.317zM28.234 14.292c0 0.628-1.677 1.503-4.409 1.503s-4.409-0.875-4.409-1.503c0-0.628 1.677-1.503 4.409-1.503s4.409 0.876 4.409 1.503z"></path>
<path d="M21.060 14.296c0 0.817 1.732 0.939 2.765 0.939s2.765-0.122 2.765-0.939c0-0.817-1.732-0.939-2.765-0.939s-2.765 0.122-2.765 0.939zM23.825 14.421c-0.631 0-1.131-0.056-1.477-0.124 0.346-0.068 0.846-0.124 1.477-0.124s1.131 0.056 1.477 0.124c-0.346 0.068-0.846 0.124-1.477 0.124z"></path>
</svg>
