<!-- Generated by IcoMoon.io -->
<svg version="1.1" xmlns="http://www.w3.org/2000/svg" width="32" height="32" viewBox="0 0 32 32">
<title>salad</title>
<path d="M30.576 9.636c-1.468-0.916-2.899-1.062-4.159-0.428-0.328-0.325-0.997-0.859-1.906-0.925-0.811-0.059-1.611 0.263-2.38 0.957-0.076-0.676-0.388-1.304-0.882-1.771-0.586-0.545-1.359-0.844-2.16-0.835-1.462 0-2.727 1.101-3.032 2.521l-3.567-2.296c-0.077-0.050-0.164-0.083-0.255-0.098s-0.183-0.011-0.273 0.012c-0.090 0.023-0.175 0.065-0.249 0.122s-0.135 0.129-0.179 0.211c-0.044 0.080-0.085 0.162-0.124 0.245-1.148-0.423-2.587-0.123-3.441 0.766-0.358 0.367-0.615 0.821-0.745 1.317s-0.131 1.017-0 1.514h-0.216c-0.554-2.003-2.584-3.057-2.67-3.101-0.082-0.042-0.177-0.053-0.267-0.030s-0.168 0.077-0.221 0.152c-0.053 0.076-0.076 0.168-0.066 0.26s0.053 0.177 0.121 0.24c0.032 0.052 0.277 0.528-0.279 2.155-1.391-0.777-2.851-1.027-3.144-1.071-0.035-0.007-0.070-0.010-0.105-0.010-0.096 0.002-0.189 0.040-0.258 0.107s-0.111 0.157-0.117 0.254c-0.006 0.096 0.025 0.191 0.087 0.266s0.149 0.123 0.244 0.136c0.002 0 0.024 0.003 0.061 0.009 0.023 0.032 0.132 0.182 0.139 0.192 0.21 0.297 0.504 0.953 0.708 2.392 0.156 1.1 0.786 2.030 1.474 2.629-0.503 0.11-0.867 0.413-0.916 0.802-0.025 0.2-0.038 0.402-0.038 0.604 0 2.191 1.458 4.235 4.106 5.755 1.261 0.724 2.724 1.288 4.313 1.677v1.39c0 0.101 0.040 0.199 0.112 0.27s0.169 0.112 0.27 0.112h9.887c0.101 0 0.199-0.040 0.27-0.112s0.112-0.169 0.112-0.27v-1.39c1.59-0.389 3.052-0.953 4.313-1.677 2.648-1.52 4.106-3.564 4.106-5.755-0-0.202-0.013-0.404-0.038-0.604-0.015-0.112-0.056-0.219-0.119-0.313 1.236-0.453 2.128-1.499 2.602-2.484 0.327-0.673 0.393-1.443 0.187-2.162s-0.672-1.336-1.306-1.733zM19.089 7.399c1.166 0 2.077 0.75 2.263 1.801-0.218-0.004-0.462 0.001-0.722 0.021-0.149-0.342-0.412-0.622-0.743-0.792s-0.712-0.221-1.077-0.143c-0.365 0.078-0.691 0.28-0.924 0.571s-0.358 0.654-0.354 1.027c-0 0.076 0.004 0.152 0.013 0.228l-0.783-0.504c0.104-1.217 1.128-2.21 2.328-2.21zM19.806 9.335c-0.533 0.103-1.044 0.298-1.509 0.577 0-0.009-0.001-0.018-0.001-0.028-0.005-0.178 0.047-0.352 0.146-0.499s0.244-0.259 0.411-0.319c0.167-0.061 0.349-0.067 0.52-0.019s0.322 0.149 0.433 0.289zM12.162 7.557l5.122 3.297c-0.139 0.195-0.257 0.404-0.353 0.624l-3.423-2.205c-0.081-0.052-0.172-0.085-0.268-0.095s-0.192 0.002-0.282 0.036c-0.091 0.034-0.172 0.089-0.238 0.16s-0.114 0.157-0.142 0.25c-0.228 0.781-0.022 1.781 0.564 2.742 0.549 0.899 1.402 1.716 2.429 2.333-0.203 0.244-0.396 0.479-0.484 0.784h-0.17c-1.353-0.979-2.38-2.33-2.898-3.821-0.513-1.479-0.462-2.932 0.142-4.104zM16.127 13.638c0.037 0.024 0.077 0.042 0.119 0.056-0.063 0.134-0.135 0.263-0.213 0.389-1.981-1.16-2.94-2.916-2.763-4.053l3.416 2.201c-0.010 0.046-0.020 0.093-0.029 0.14-0.023 0.123-0.048 0.24-0.075 0.35-0.11-0.041-0.231-0.042-0.343-0.004s-0.206 0.113-0.269 0.213c-0.072 0.115-0.096 0.254-0.067 0.387s0.11 0.248 0.224 0.322v-0zM11.633 12.724c0.502 1.046 1.206 1.983 2.070 2.758h-2.070v-2.758zM8.521 8.647c0.638-0.664 1.75-0.895 2.614-0.582-0.057 0.19-0.104 0.383-0.139 0.577-0.21-0.070-0.43-0.106-0.651-0.105-0.506 0.003-0.991 0.207-1.347 0.566s-0.556 0.846-0.554 1.352c0.001 0.166 0.023 0.332 0.066 0.492h-0.484c-0.146-0.391-0.177-0.815-0.089-1.223s0.291-0.782 0.584-1.078zM11.034 10.948h-1.716c-0.070-0.155-0.107-0.322-0.109-0.492-0.002-0.304 0.117-0.595 0.33-0.812s0.503-0.339 0.807-0.342c0.196-0.002 0.389 0.043 0.564 0.132-0.019 0.508 0.023 1.016 0.125 1.514v-0zM7.137 11.712h3.731v3.769h-4.569c0.040-0.319 0.050-0.642 0.031-0.963 0.595-0.958 0.865-1.898 0.806-2.806v-0zM4.748 9.036c0.561 0.444 1.27 1.17 1.53 2.14 0.182 0.681 0.118 1.401-0.188 2.148-0.134-0.377-0.321-0.733-0.554-1.058-0.345-0.473-0.766-0.886-1.246-1.223 0.286-0.8 0.44-1.473 0.459-2.007zM1.997 12.79c-0.135-0.948-0.325-1.698-0.569-2.239 1.053 0.303 2.61 0.935 3.485 2.16 0.557 0.78 0.762 1.711 0.614 2.771h-0.264c-0.466-2.56-1.916-3.285-1.981-3.316-0.045-0.022-0.095-0.035-0.145-0.038s-0.101 0.004-0.148 0.021c-0.048 0.017-0.091 0.042-0.129 0.076s-0.068 0.074-0.090 0.12c-0.022 0.045-0.034 0.095-0.037 0.145s0.005 0.101 0.021 0.148 0.043 0.091 0.077 0.129c0.034 0.037 0.075 0.068 0.12 0.089 0.012 0.006 1.116 0.559 1.534 2.627h-0.312c-0.633-0.071-1.959-1.161-2.177-2.692l-0 0zM20.066 25.372h-9.122v-0.836c3.011 0.599 6.111 0.599 9.122 0v0.836zM28.461 17.373h-19.152c-0.101 0-0.199 0.040-0.27 0.112s-0.112 0.169-0.112 0.27c0 0.101 0.040 0.199 0.112 0.27s0.169 0.112 0.27 0.112h18.998c-0.436 1.454-1.655 2.803-3.542 3.886-2.467 1.416-5.755 2.196-9.258 2.196s-6.792-0.78-9.258-2.196c-1.887-1.083-3.107-2.433-3.542-3.886h3.927c0.101 0 0.199-0.040 0.27-0.112s0.112-0.169 0.112-0.27c0-0.101-0.040-0.199-0.112-0.27s-0.169-0.112-0.27-0.112h-4.082c-0.035-0.313-0.033-0.629 0.006-0.942 0.031-0.055 0.239-0.185 0.58-0.185h24.738c0.341 0 0.549 0.129 0.58 0.185 0.021 0.166 0.031 0.334 0.031 0.501-0 0.147-0.009 0.294-0.025 0.441zM17.201 15.482c0.607-0.231 1.29-0.443 2.013-0.637 0.013 0.013 0.026 0.025 0.039 0.037 0.277 0.23 0.577 0.431 0.894 0.6h-2.946zM31.006 13.2c-0.518 1.078-1.615 2.242-3.139 2.282h-5.808c-0.666-0.213-1.302-0.508-1.896-0.877 1.238-0.294 2.543-0.54 3.752-0.738 0.017 0.022 0.035 0.043 0.055 0.064 0.481 0.502 1.439 1.328 2.529 1.328 0.032 0 0.064-0.001 0.097-0.002 0.051-0.002 0.1-0.013 0.146-0.034s0.087-0.051 0.122-0.088 0.061-0.081 0.078-0.128c0.017-0.048 0.025-0.098 0.023-0.149s-0.015-0.1-0.036-0.146-0.052-0.087-0.090-0.121c-0.037-0.034-0.081-0.060-0.129-0.077s-0.098-0.024-0.149-0.021c-0.646 0.028-1.287-0.409-1.706-0.773 2.191-0.331 3.873-0.492 3.913-0.496 0.101-0.009 0.194-0.059 0.259-0.137s0.096-0.179 0.086-0.28c-0.009-0.101-0.059-0.194-0.137-0.259s-0.179-0.096-0.28-0.086c-0.165 0.015-1.852 0.177-4.024 0.506 0.288-0.523 0.859-1.254 1.845-1.417 0.1-0.017 0.188-0.073 0.247-0.155s0.082-0.184 0.066-0.284-0.072-0.189-0.154-0.248c-0.082-0.059-0.184-0.083-0.284-0.067-1.612 0.266-2.35 1.641-2.593 2.22-0.013 0.031-0.024 0.062-0.033 0.094-1.263 0.208-2.631 0.467-3.931 0.783 0.214-0.61 0.684-1.536 1.622-1.854 0.048-0.016 0.092-0.041 0.131-0.074s0.070-0.073 0.092-0.118c0.023-0.045 0.036-0.094 0.039-0.145s-0.003-0.101-0.019-0.149c-0.016-0.048-0.042-0.092-0.075-0.13s-0.074-0.069-0.119-0.091c-0.045-0.022-0.095-0.035-0.145-0.038s-0.101 0.004-0.149 0.021c-1.484 0.503-2.045 2.066-2.218 2.714-0.007 0.028-0.013 0.056-0.018 0.085-0.992 0.269-1.917 0.573-2.69 0.915 0.372-0.458 0.86-1.153 1.12-2.517 0.249-1.31 1.105-2.127 2.544-2.428 0.735-0.141 1.488-0.159 2.228-0.054 0.060 0.010 0.121 0.007 0.178-0.011s0.11-0.049 0.154-0.091c0.65-0.631 1.301-0.928 1.936-0.885 0.943 0.065 1.58 0.869 1.585 0.877 0.057 0.075 0.14 0.126 0.233 0.143s0.188-0 0.269-0.049c1.078-0.654 2.301-0.563 3.635 0.27 0.474 0.297 0.822 0.759 0.976 1.297s0.104 1.114-0.141 1.617l-0 0z"></path>
<path d="M15.249 11.581c-0.057-0.037-0.121-0.062-0.188-0.074s-0.135-0.011-0.202 0.004c-0.066 0.015-0.129 0.042-0.184 0.082s-0.103 0.089-0.139 0.146c-0.072 0.115-0.096 0.254-0.067 0.387s0.11 0.248 0.223 0.322c0.082 0.053 0.179 0.082 0.277 0.082 0.038 0 0.075-0.004 0.112-0.012 0.066-0.014 0.129-0.042 0.185-0.081s0.103-0.089 0.139-0.147c0.072-0.115 0.096-0.254 0.067-0.387s-0.11-0.248-0.223-0.322z"></path>
<path d="M8.265 21.32c-0.046 0.090-0.054 0.195-0.022 0.292s0.1 0.176 0.191 0.222c1.421 0.718 2.985 1.109 4.577 1.143h0.010c0.101 0.001 0.199-0.038 0.272-0.109s0.114-0.168 0.115-0.269c0.001-0.101-0.038-0.199-0.109-0.272s-0.168-0.114-0.269-0.115c-1.478-0.031-2.931-0.394-4.251-1.061-0.045-0.023-0.094-0.036-0.144-0.040s-0.1 0.002-0.148 0.018-0.092 0.041-0.13 0.073c-0.038 0.033-0.069 0.073-0.092 0.118z"></path>
<path d="M7.427 20.329c-0.123-0.088-0.247-0.181-0.367-0.275-0.080-0.063-0.181-0.091-0.282-0.079s-0.192 0.064-0.255 0.144c-0.063 0.080-0.091 0.181-0.079 0.282s0.064 0.192 0.144 0.255c0.129 0.101 0.261 0.2 0.393 0.294 0.041 0.030 0.087 0.051 0.136 0.063s0.1 0.014 0.15 0.006 0.098-0.026 0.141-0.052c0.043-0.027 0.080-0.061 0.11-0.102s0.050-0.088 0.062-0.137 0.013-0.1 0.004-0.15c-0.008-0.050-0.027-0.097-0.054-0.14s-0.062-0.080-0.103-0.109h0z"></path>
</svg>
