<!-- Generated by IcoMoon.io -->
<svg version="1.1" xmlns="http://www.w3.org/2000/svg" width="32" height="32" viewBox="0 0 32 32">
<title>search</title>
<path d="M31.805 30.862l-9.737-9.737c2.022-2.245 3.265-5.206 3.265-8.459 0-6.984-5.682-12.667-12.667-12.667s-12.667 5.682-12.667 12.667c0 6.984 5.682 12.667 12.667 12.667 3.253 0 6.213-1.243 8.459-3.265l9.737 9.737c0.13 0.13 0.301 0.195 0.471 0.195s0.341-0.065 0.471-0.195c0.26-0.26 0.26-0.682-0-0.943zM12.667 24c-6.249 0-11.333-5.084-11.333-11.333s5.085-11.333 11.333-11.333c6.249 0 11.333 5.084 11.333 11.333s-5.085 11.333-11.333 11.333z"></path>
</svg>
