<!-- Generated by IcoMoon.io -->
<svg version="1.1" xmlns="http://www.w3.org/2000/svg" width="32" height="32" viewBox="0 0 32 32">
<title>sets</title>
<path d="M9.085 30.897c-4.103 0-7.43-3.326-7.43-7.43s3.326-7.43 7.43-7.43c4.103 0 7.43 3.326 7.43 7.43s-3.326 7.43-7.43 7.43zM9.085 32c4.713 0 8.533-3.82 8.533-8.533s-3.821-8.533-8.533-8.533c-4.713 0-8.533 3.821-8.533 8.533s3.821 8.533 8.533 8.533z"></path>
<path d="M11.218 23.467c0 1.178-0.955 2.133-2.133 2.133s-2.133-0.955-2.133-2.133c0-1.178 0.955-2.133 2.133-2.133s2.133 0.955 2.133 2.133z"></path>
<path d="M21.885 15.963c-4.103 0-7.43-3.326-7.43-7.43s3.326-7.43 7.43-7.43 7.43 3.326 7.43 7.43c0 4.103-3.327 7.43-7.43 7.43zM21.885 17.067c4.713 0 8.533-3.821 8.533-8.533s-3.821-8.533-8.533-8.533-8.533 3.821-8.533 8.533c0 4.713 3.82 8.533 8.533 8.533z"></path>
<path d="M24.018 8.533c0 1.178-0.955 2.133-2.133 2.133s-2.133-0.955-2.133-2.133 0.955-2.133 2.133-2.133c1.178 0 2.133 0.955 2.133 2.133z"></path>
<path d="M6.952 11.697c-1.747 0-3.163-1.416-3.163-3.163s1.416-3.163 3.163-3.163c1.747 0 3.163 1.416 3.163 3.163s-1.416 3.163-3.163 3.163zM6.952 12.8c2.356 0 4.267-1.91 4.267-4.267s-1.91-4.267-4.267-4.267c-2.356 0-4.267 1.91-4.267 4.267s1.91 4.267 4.267 4.267z"></path>
<path d="M8.018 8.533c0 0.589-0.478 1.067-1.067 1.067s-1.067-0.478-1.067-1.067c0-0.589 0.478-1.067 1.067-1.067s1.067 0.478 1.067 1.067z"></path>
<path d="M24.018 28.763c-1.747 0-3.163-1.416-3.163-3.163s1.416-3.163 3.163-3.163c1.747 0 3.163 1.416 3.163 3.163s-1.416 3.163-3.163 3.163zM24.018 29.867c2.356 0 4.267-1.91 4.267-4.267s-1.91-4.267-4.267-4.267c-2.356 0-4.267 1.91-4.267 4.267s1.91 4.267 4.267 4.267z"></path>
<path d="M25.085 25.6c0 0.589-0.478 1.067-1.067 1.067s-1.067-0.478-1.067-1.067 0.478-1.067 1.067-1.067c0.589 0 1.067 0.478 1.067 1.067z"></path>
</svg>
