<!-- Generated by IcoMoon.io -->
<svg version="1.1" xmlns="http://www.w3.org/2000/svg" width="32" height="32" viewBox="0 0 32 32">
<title>soups</title>
<path d="M30.808 1.252c-0.624-0.384-1.441-0.144-1.825 0.48l-6.58 11.527h-21.421c-0.288 0-0.48 0.192-0.48 0.48v1.393c0 4.995 2.594 9.558 6.868 12.055-0.336 0.288-0.528 0.72-0.528 1.201v2.065c0 0.288 0.192 0.48 0.48 0.48h14.361c0.288 0 0.48-0.192 0.48-0.48v-2.065c0-0.48-0.192-0.913-0.528-1.201 4.275-2.497 6.868-7.012 6.868-12.055v-1.393c0-0.288-0.192-0.48-0.48-0.48h-2.546l5.86-10.182c0.336-0.624 0.144-1.441-0.528-1.825zM27.494 14.219v0.913c0 5.043-2.834 9.51-7.348 11.719-0.192 0.096-0.288 0.336-0.24 0.528 0.048 0.24 0.24 0.384 0.48 0.384h0.192c0.336 0 0.576 0.288 0.576 0.576v1.585h-13.352v-1.585c0-0.336 0.288-0.576 0.576-0.576h0.192c0.24 0 0.432-0.144 0.48-0.384s-0.048-0.432-0.24-0.528c-4.515-2.209-7.348-6.676-7.348-11.719v-0.913h26.031zM30.472 2.596l-6.148 10.662h-0.817l6.34-10.999c0.096-0.192 0.336-0.24 0.48-0.144 0.192 0.096 0.24 0.288 0.144 0.48z"></path>
</svg>
