<!-- Generated by IcoMoon.io -->
<svg version="1.1" xmlns="http://www.w3.org/2000/svg" width="32" height="32" viewBox="0 0 32 32">
<title>stocks</title>
<path d="M29.493 16.403c-0.125-0.256-0.125-0.55 0-0.806l1.161-2.375c0.646-1.322 0.134-2.898-1.166-3.588l-2.335-1.239c-0.252-0.134-0.425-0.371-0.474-0.652l-0.457-2.604c-0.254-1.45-1.595-2.424-3.052-2.218l-2.617 0.37c-0.282 0.040-0.562-0.051-0.767-0.249l-1.9-1.838c-1.058-1.023-2.715-1.023-3.773 0l-1.9 1.838c-0.205 0.198-0.484 0.289-0.767 0.249l-2.617-0.37c-1.457-0.206-2.798 0.768-3.052 2.218l-0.457 2.604c-0.049 0.281-0.222 0.519-0.474 0.652l-2.335 1.239c-1.3 0.69-1.812 2.266-1.166 3.588l1.161 2.375c0.125 0.256 0.125 0.55 0 0.806l-1.161 2.375c-0.646 1.322-0.134 2.898 1.166 3.588l2.335 1.239c0.252 0.134 0.425 0.372 0.474 0.652l0.457 2.604c0.231 1.32 1.363 2.245 2.664 2.245 0.128 0 0.258-0.009 0.389-0.027l2.617-0.37c0.282-0.040 0.562 0.051 0.767 0.249l1.9 1.838c0.529 0.512 1.208 0.768 1.886 0.767s1.358-0.256 1.886-0.767l1.9-1.838c0.205-0.198 0.484-0.289 0.767-0.249l2.617 0.37c1.458 0.206 2.798-0.768 3.052-2.218l0.457-2.604c0.049-0.281 0.222-0.519 0.474-0.652l2.335-1.239c1.3-0.69 1.812-2.266 1.166-3.588l-1.161-2.375zM28.647 20.78l-2.335 1.239c-0.745 0.395-1.255 1.098-1.401 1.928l-0.457 2.604c-0.086 0.49-0.539 0.82-1.033 0.75l-2.617-0.37c-0.835-0.118-1.661 0.15-2.266 0.736l-1.9 1.838c-0.358 0.346-0.918 0.346-1.276 0l-1.9-1.838c-0.512-0.495-1.181-0.764-1.88-0.764-0.128 0-0.257 0.009-0.386 0.027l-2.617 0.37c-0.493 0.070-0.947-0.26-1.033-0.75l-0.457-2.604c-0.146-0.83-0.656-1.533-1.401-1.928l-2.335-1.239c-0.44-0.233-0.613-0.767-0.394-1.214l1.161-2.375c0.37-0.757 0.37-1.626 0-2.383l-1.161-2.375c-0.219-0.447-0.045-0.981 0.394-1.214l2.335-1.239c0.744-0.395 1.255-1.098 1.401-1.928l0.457-2.604c0.086-0.49 0.539-0.82 1.033-0.75l2.617 0.37c0.834 0.118 1.661-0.15 2.266-0.736l1.9-1.838c0.358-0.346 0.918-0.346 1.276 0l1.9 1.838c0.606 0.586 1.432 0.854 2.266 0.736l2.617-0.37c0.493-0.070 0.947 0.26 1.033 0.75l0.457 2.604c0.146 0.83 0.656 1.533 1.401 1.928l2.335 1.239c0.44 0.233 0.613 0.767 0.395 1.214l-1.161 2.375c-0.37 0.757-0.37 1.626 0 2.383l1.161 2.375c0.219 0.447 0.045 0.981-0.394 1.214z"></path>
<path d="M22.559 9.441c-0.351-0.351-0.919-0.351-1.269 0l-11.848 11.848c-0.351 0.351-0.351 0.919 0 1.269 0.175 0.175 0.405 0.263 0.635 0.263s0.459-0.088 0.635-0.263l11.848-11.848c0.351-0.351 0.351-0.919 0-1.269z"></path>
<path d="M12.41 7.921c-1.815 0-3.291 1.476-3.291 3.291s1.476 3.291 3.291 3.291c1.815 0 3.291-1.476 3.291-3.291s-1.476-3.291-3.291-3.291zM12.41 12.709c-0.825 0-1.496-0.671-1.496-1.496s0.671-1.496 1.496-1.496c0.825 0 1.496 0.671 1.496 1.496s-0.671 1.496-1.496 1.496z"></path>
<path d="M19.59 17.496c-1.815 0-3.291 1.476-3.291 3.291s1.476 3.291 3.291 3.291 3.291-1.476 3.291-3.291c0-1.815-1.476-3.291-3.291-3.291zM19.59 22.283c-0.825 0-1.496-0.671-1.496-1.496s0.671-1.496 1.496-1.496c0.825 0 1.496 0.671 1.496 1.496s-0.671 1.496-1.496 1.496z"></path>
</svg>
