<!-- Generated by IcoMoon.io -->
<svg version="1.1" xmlns="http://www.w3.org/2000/svg" width="32" height="32" viewBox="0 0 32 32">
<title>sushi</title>
<path d="M31.157 15.257l-2.486-2.893c-0.383-0.446-0.799-0.873-1.235-1.272-0.193-0.175-0.491-0.162-0.666 0.031s-0.162 0.491 0.031 0.666c0.361 0.329 0.705 0.68 1.027 1.045 0.087 2.271-0.366 4.541-1.313 6.605l-3.327-1.5c-0.094-0.042-0.188-0.083-0.282-0.124 0.576-2.972 0.26-6.066-0.896-8.855 1.146 0.39 3.889 2.23 4.898 2.913 0.081 0.055 0.173 0.081 0.264 0.081 0.151 0 0.3-0.073 0.391-0.207 0.146-0.216 0.090-0.509-0.126-0.655-2.036-1.378-6.045-3.52-8.489-3.745-0.4-0.533-1.036-0.878-1.752-0.878h-3.559c-0.792 0-1.487 0.423-1.872 1.055-3.275 0.599-6.264 2.311-8.436 4.839l-2.486 2.893c-0.955 1.112-1.114 2.716-0.395 3.994 0.429 0.763 1.124 1.334 1.956 1.607 0.072 0.024 0.145 0.044 0.218 0.063-0.112 1.031 0.183 2.061 0.84 2.885 0.755 0.948 1.884 1.491 3.095 1.491h6.098c0.296 0.149 0.629 0.234 0.982 0.234h3.559c0.353 0 0.687-0.085 0.983-0.234h7.203c1.212 0 2.34-0.544 3.095-1.491 0.653-0.82 0.948-1.843 0.841-2.869 0.094-0.022 0.187-0.049 0.28-0.079 0.832-0.273 1.527-0.844 1.956-1.607 0.719-1.277 0.56-2.882-0.395-3.994zM20.823 8.615c1.314 2.743 1.73 5.856 1.188 8.847-0.854-0.31-1.733-0.55-2.627-0.719v-8.085c0-0.106-0.008-0.21-0.023-0.312 0.492 0.064 0.98 0.153 1.462 0.27zM11.448 8.658v4.552c-0.909-1.319-2.023-2.495-3.289-3.473 1.037-0.533 2.143-0.933 3.292-1.187-0.002 0.036-0.003 0.072-0.003 0.108zM1.269 18.788c-0.525-0.933-0.409-2.105 0.289-2.916l1.34-1.559c0.528 0.288 1.044 0.612 1.536 0.966 0.083 0.060 1.411 1.247 1.507 1.247 0.147 0 0.366-0.397 0.459-0.525 0.152-0.211 0.402-0.007 0.191-0.16-0.47-0.338-2.564-1.978-3.064-2.259l0.518-0.603c0.929-1.081 2.017-2.001 3.217-2.737 1.721 1.253 3.163 2.891 4.187 4.761v2.004c-0.903 0.238-1.788 0.551-2.635 0.933l-0.284 0.128c-0.572-0.8-1.223-1.548-1.938-2.227-0.189-0.179-0.488-0.171-0.667 0.018s-0.171 0.488 0.018 0.667c0.626 0.594 1.199 1.245 1.708 1.938l-3.106 1.4c-1.214 0.547-2.621 0.085-3.274-1.075zM4.199 23.218c-0.498-0.625-0.723-1.405-0.641-2.187 0.47-0.008 0.937-0.111 1.374-0.308l4.269-1.924c0.724-0.327 1.478-0.599 2.247-0.814v4.041h-0.472c-0.261 0-0.472 0.211-0.472 0.472s0.211 0.472 0.472 0.472h0.472v0.373c0 0.365 0.090 0.709 0.249 1.011h-5.14c-0.923 0-1.782-0.414-2.358-1.136zM27.738 23.218c-0.575 0.722-1.435 1.136-2.358 1.136h-6.245c0.142-0.271 0.229-0.574 0.246-0.897 0.007 0 0.014 0.001 0.021 0.001h0.524c0.26 0 0.472-0.211 0.472-0.472s-0.211-0.472-0.472-0.472h-0.524c-0.006 0-0.012 0.001-0.018 0.001v-2.844c0-0.26-0.211-0.472-0.472-0.472s-0.472 0.211-0.472 0.472v3.671c0 0.687-0.559 1.245-1.245 1.245h-3.559c-0.687 0-1.245-0.558-1.245-1.245v-14.685c0-0.687 0.559-1.245 1.245-1.245h3.559c0.687 0 1.245 0.559 1.245 1.245v10.898c0 0.261 0.211 0.472 0.472 0.472s0.472-0.211 0.472-0.472v-1.852c1.177 0.236 2.323 0.603 3.416 1.096l4.269 1.924c0.418 0.188 0.862 0.29 1.311 0.306 0.082 0.782-0.143 1.563-0.641 2.188zM30.731 18.788c-0.653 1.16-2.060 1.623-3.274 1.076l-0.083-0.037c0.85-1.854 1.325-3.864 1.397-5.899l1.671 1.944c0.698 0.812 0.813 1.984 0.289 2.916z"></path>
<path d="M21.325 19.236h-0.455c-0.26 0-0.472 0.211-0.472 0.472s0.211 0.472 0.472 0.472h0.455c0.26 0 0.472-0.211 0.472-0.472s-0.211-0.472-0.472-0.472z"></path>
<path d="M23.877 21.23h-0.769c-0.261 0-0.472 0.211-0.472 0.472s0.211 0.472 0.472 0.472h0.769c0.26 0 0.472-0.211 0.472-0.472s-0.211-0.472-0.472-0.472z"></path>
<path d="M11.063 20.561c0-0.261-0.211-0.472-0.472-0.472h-0.839c-0.261 0-0.472 0.211-0.472 0.472s0.211 0.472 0.472 0.472h0.839c0.261 0 0.472-0.211 0.472-0.472z"></path>
<path d="M7.689 22.025h-1.503c-0.261 0-0.472 0.211-0.472 0.472s0.211 0.472 0.472 0.472h1.503c0.261 0 0.472-0.211 0.472-0.472s-0.211-0.472-0.472-0.472z"></path>
</svg>
