<!-- Generated by IcoMoon.io -->
<svg version="1.1" xmlns="http://www.w3.org/2000/svg" width="32" height="32" viewBox="0 0 32 32">
<title>wok</title>
<path d="M14.39 3.362c0.913 0 1.66-0.747 1.66-1.66s-0.747-1.66-1.66-1.66c-0.249 0-0.415 0.166-0.415 0.415s0.166 0.415 0.415 0.415c0.457 0 0.83 0.374 0.83 0.83s-0.374 0.83-0.83 0.83c-0.913 0-1.66 0.747-1.66 1.66-0.041 0.913 0.706 1.66 1.66 1.66 0.249 0 0.415-0.166 0.415-0.415s-0.166-0.415-0.415-0.415c-0.457 0-0.83-0.374-0.83-0.83s0.374-0.83 0.83-0.83z"></path>
<path d="M17.669 3.32c0.913 0 1.66-0.747 1.66-1.66s-0.747-1.66-1.66-1.66c-0.249 0-0.415 0.166-0.415 0.415s0.166 0.415 0.415 0.415c0.457 0 0.83 0.374 0.83 0.83s-0.374 0.83-0.83 0.83c-0.913 0-1.66 0.747-1.66 1.66s0.747 1.66 1.66 1.66c0.249 0 0.415-0.166 0.415-0.415s-0.166-0.415-0.415-0.415c-0.457 0-0.83-0.374-0.83-0.83s0.374-0.83 0.83-0.83z"></path>
<path d="M28.751 5.396c-0.208-0.083-0.457 0-0.54 0.249l-2.449 6.101h-0.498l-2.698-4.109c-0.083-0.125-0.207-0.208-0.332-0.208h-12.202c-0.124 0-0.249 0.042-0.332 0.166l-3.071 4.109h-0.374l-2.449-6.101c-0.083-0.208-0.332-0.332-0.54-0.249s-0.332 0.332-0.249 0.54l2.532 6.309 1.411 18.968c0 0.083 0 0.124 0 0.166v0.291c0 0.208 0.208 0.374 0.415 0.374h17.266c0.208 0 0.415-0.166 0.415-0.374l1.37-19.383 2.532-6.309c0.125-0.249 0-0.457-0.207-0.54zM10.24 8.259h11.787l2.241 3.486h-16.602l2.573-3.486zM25.306 12.576l-9.297 9.629-9.339-9.629h18.636zM6.463 13.572l8.923 9.256-7.678 7.471-1.245-16.726zM7.999 31.17l7.969-7.761 7.72 7.761h-15.689zM24.31 30.672l-7.72-7.886 8.965-9.297-1.245 17.183z"></path>
</svg>
